# xmcd
#
# Track frame offsets:
#	150
#	14865
#	26981
#	50397
#	68919
#	79216
#	92500
#	108064
#	116399
#	131742
#	150971
#	168679
#	180118
#	199895
#	212289
#	220989
#	233996
#	263520
#	279064
#	294510
#	306255
#	320398
#
# Disc length: 4410 seconds
# Revision: 0
# Processed by: cddbd v1.5.2PL0 Copyright (c) Steve Scherf et al.
# Submitted via: dBpowerAMP V12.0
#
DISCID=2c113816
DTITLE=Various Artist - Blues Revival, Vol. 1: 1963-1969
DYEAR=2014
DGENRE=Blues
TTITLE0=Sleepy John Estes - Mailman Blues
TTITLE1=Sleepy John Estes - I'm A Tearing Little Daddy
TTITLE2=Brownie McGhee - Everything Gonna Be Alright
TTITLE3=Mississippi John Hurt - Abalon Blues
TTITLE4=Mississippi John Hurt - I Hate To See That Evening Sun Go Down
TTITLE5=Sonny Boy Williamson II - Bye Bye Bird
TTITLE6=Sonny Boy Williamson II - Work With Me
TTITLE7=John Jackson - Buck Dancer's Choice
TTITLE8=John Jackson - John Henry
TTITLE9=Sippie Wallace - Suitcase Blues
TTITLE10=Big Walter Horton - Mysterious Blues
TTITLE11=Big Walter Horton - Baby I Need Your Love
TTITLE12=Mississippi John Hurt - Casey Jones
TTITLE13=Mississippi John Hurt - Spanish Flang Dang
TTITLE14=Mississippi John Hurt - Welcome Address
TTITLE15=Sippie Wallace - You Don't Know My Mind
TTITLE16=Brownie McGhee - Stop Using Me
TTITLE17=Big Walter Horton - Medley: When I Lost My Baby/St. Louis Blues/Careless Loved/John Henry
TTITLE18=Big Walter Horton - Shakey's Boobie
TTITLE19=John Jackson - Tell Me Pretty Mama
TTITLE20=John Jackson - Poor Boy
TTITLE21=Sonny Terry - Harmonica Piece
EXTD=
EXTT0=
EXTT1=
EXTT2=
EXTT3=
EXTT4=
EXTT5=
EXTT6=
EXTT7=
EXTT8=
EXTT9=
EXTT10=
EXTT11=
EXTT12=
EXTT13=
EXTT14=
EXTT15=
EXTT16=
EXTT17=
EXTT18=
EXTT19=
EXTT20=
EXTT21=
PLAYORDER=
